HIERARCHY
ROOT Hips
{
	OFFSET 0 0 0
	CHANNELS 6 Xposition Yposition Zposition Yrotation Xrotation Zrotation
	JOINT Spine
	{
		OFFSET -0 8.38753 -2.67353
		CHANNELS 3 Yrotation Xrotation Zrotation
		JOINT Spine1
		{
			OFFSET -0 8.14501 0
			CHANNELS 3 Yrotation Xrotation Zrotation
			JOINT Spine2
			{
				OFFSET -0 8.14501 0
				CHANNELS 3 Yrotation Xrotation Zrotation
				JOINT Spine3
				{
					OFFSET -0 8.14501 0
					CHANNELS 3 Yrotation Xrotation Zrotation
					JOINT Neck
					{
						OFFSET -0 20.4023 3.67353
						CHANNELS 3 Yrotation Xrotation Zrotation
						JOINT Head
						{
							OFFSET -0 10.4844 0
							CHANNELS 3 Yrotation Xrotation Zrotation
							End Site
							{
								OFFSET 0 15 0
							}
						}
					}
					JOINT LeftShoulder
					{
						OFFSET 1.7474 7.28686 3.4948
						CHANNELS 3 Yrotation Xrotation Zrotation
						JOINT LeftArm
						{
							OFFSET 15.4467 0 0
							CHANNELS 3 Yrotation Xrotation Zrotation
							JOINT LeftForeArm
							{
								OFFSET 24.9712 0 0
								CHANNELS 3 Yrotation Xrotation Zrotation
								JOINT LeftHand
								{
									OFFSET 23.8013 0 0
									CHANNELS 3 Yrotation Xrotation Zrotation
									End Site
									{
										OFFSET 15 0 0
									}
								}
							}
						}
					}
					JOINT RightShoulder
					{
						OFFSET -1.7474 7.28686 3.4948
						CHANNELS 3 Yrotation Xrotation Zrotation
						JOINT RightArm
						{
							OFFSET -15.4467 0 0
							CHANNELS 3 Yrotation Xrotation Zrotation
							JOINT RightForeArm
							{
								OFFSET -24.9712 0 0
								CHANNELS 3 Yrotation Xrotation Zrotation
								JOINT RightHand
								{
									OFFSET -23.8013 0 0
									CHANNELS 3 Yrotation Xrotation Zrotation
									End Site
									{
										OFFSET -15 0 0
									}
								}
							}
						}
					}
				}
			}
		}
	}
	JOINT LeftUpLeg
	{
		OFFSET 10.4844 -3.4948 2
		CHANNELS 3 Yrotation Xrotation Zrotation
		JOINT LeftLeg
		{
			OFFSET -0 -39.9267 2.44636
			CHANNELS 3 Yrotation Xrotation Zrotation
			JOINT LeftFoot
			{
				OFFSET -0 -41.4083 -2.44636
				CHANNELS 3 Yrotation Xrotation Zrotation
				JOINT LeftToeBase
				{
					OFFSET -0 -6.74672 15.7266
					CHANNELS 3 Yrotation Xrotation Zrotation
					End Site
					{
						OFFSET 0 0 5
					}
				}
			}
		}
	}
	JOINT RightUpLeg
	{
		OFFSET -10.4844 -3.4948 2
		CHANNELS 3 Yrotation Xrotation Zrotation
		JOINT RightLeg
		{
			OFFSET -0 -39.9267 2.44636
			CHANNELS 3 Yrotation Xrotation Zrotation
			JOINT RightFoot
			{
				OFFSET -0 -41.4083 -2.44636
				CHANNELS 3 Yrotation Xrotation Zrotation
				JOINT RightToeBase
				{
					OFFSET -0 -6.74672 15.7266
					CHANNELS 3 Yrotation Xrotation Zrotation
					End Site
					{
						OFFSET 0 0 5
					}
				}
			}
		}
	}
}
MOTION
Frames: 8
Frame Time: 0.00833333
-118.252649 87.811322 -12.465653 5.345711 -2.963944 -15.233261 -1.969911 4.007404 2.157369 -1.040384 3.644302 1.147014 -0.421250 3.091131 0.169979 -0.232724 2.692846 -0.400567 -0.728407 -6.941919 15.989121 1.809453 -5.244069 -8.827259 22.418025 13.204272 17.785605 -64.408973 -5.587171 -36.739701 -65.610325 3.524988 -6.918236 11.326204 17.436778 -43.179315 1.411859 -7.508850 -9.968589 -6.581599 16.899324 81.414465 35.726686 11.620271 -13.084933 -29.010496 -13.423816 33.041522 -4.534536 -33.008013 15.492159 0.000000 83.164626 0.000000 5.140887 10.135762 0.403543 0.000000 -9.859523 0.000000 -4.294622 -11.543473 16.257707 0.000000 35.953595 0.000000 8.197814 -15.293159 0.202413 0.000000 -7.260069 0.000000
-117.826172 87.862671 -12.563498 4.422334 -3.151644 -14.708422 -1.642335 4.077975 2.438676 -0.674934 3.831463 1.228824 -0.247435 3.187968 -0.112546 -0.164349 2.612801 -0.174620 -0.631121 -7.335046 15.129473 1.930543 -5.623797 -8.914827 21.967897 13.068810 17.494583 -64.181324 -5.769654 -35.430758 -67.276878 3.374051 -5.212383 11.021606 17.278484 -43.511657 1.691125 -7.322577 -10.467103 -5.687916 17.353886 81.857383 35.983165 12.421002 -13.122457 -28.767621 -13.073955 33.160135 -4.266525 -33.849880 15.463253 0.000000 84.040148 0.000000 4.478812 9.785788 -1.088149 0.000000 -10.159137 0.000000 -3.252685 -11.931380 15.515572 0.000000 36.152943 0.000000 8.182894 -15.131133 0.238595 0.000000 -7.283465 0.000000
-117.385889 87.923083 -12.633645 3.622928 -3.274377 -14.107274 -1.495617 4.284571 2.367750 -0.514942 3.828701 1.250987 -0.096521 3.146290 0.148992 0.039824 2.677247 -0.271532 -0.435263 -7.605948 14.480488 2.153612 -6.172514 -9.236014 21.692502 12.767697 17.333707 -63.712908 -6.099785 -34.403135 -69.190741 2.911413 -3.550058 10.874205 17.121013 -43.574872 1.849052 -7.008252 -10.825874 -4.317709 17.806729 82.280018 36.610598 13.329405 -13.199977 -28.729299 -12.819081 33.074977 -4.165541 -34.735355 15.384361 0.000000 84.876565 0.000000 4.200402 9.444491 -2.459960 0.000000 -10.413741 0.000000 -2.216006 -12.274808 14.700174 0.000000 36.286157 0.000000 7.977485 -15.140615 0.347689 0.000000 -7.073806 0.000000
-116.932983 88.018835 -12.685140 2.889015 -3.405276 -13.481410 -1.292915 4.477504 2.500589 -0.314549 3.850833 1.224707 0.026909 3.173973 -0.016001 0.116356 2.637492 -0.188071 -0.265266 -7.810331 13.862680 2.341455 -6.766796 -9.378577 21.433607 12.542488 17.009257 -63.208555 -6.109091 -33.000256 -71.379409 2.545961 -1.752784 11.050537 15.997640 -43.417891 1.974563 -6.739424 -11.206288 -3.936567 18.127373 82.564335 37.488974 14.097684 -12.751779 -28.529116 -11.815731 32.795544 -4.039126 -35.542662 15.257081 0.000000 85.541913 0.000000 4.301263 9.210607 -3.536689 0.000000 -10.087231 0.000000 -1.039578 -12.493094 13.848363 0.000000 36.235513 0.000000 7.636468 -15.145714 0.421146 0.000000 -6.836516 0.000000
-116.472205 88.143658 -12.720840 2.155103 -3.431278 -12.757354 -1.184340 4.545668 2.370128 -0.169264 3.917429 1.172317 0.128726 3.173603 0.012463 0.207308 2.598088 -0.185803 0.029159 -8.064247 13.257817 2.520358 -7.186502 -9.293980 21.196282 12.181464 16.829076 -62.248703 -6.386053 -32.005994 -73.889260 2.658520 -0.184781 10.909965 14.524703 -43.155780 2.054755 -6.581679 -11.463740 -3.634420 18.426962 82.685449 38.491775 15.085014 -12.175591 -28.438458 -10.689809 32.308481 -3.826018 -36.319210 14.986706 0.000000 85.988833 0.000000 4.664612 9.213711 -4.601532 0.000000 -10.175286 0.000000 0.190020 -12.763001 12.886447 0.000000 36.147662 0.000000 7.291503 -15.150574 0.471338 0.000000 -6.502881 0.000000
-116.022095 88.306555 -12.741044 1.636909 -3.359912 -12.076456 -1.164983 4.678309 2.217976 -0.146476 3.814967 1.111388 0.185704 3.192135 0.121250 0.267337 2.577570 -0.232152 0.313120 -8.348153 12.692558 2.706996 -7.599431 -9.295469 21.110611 11.822970 16.666115 -61.298410 -6.640916 -31.093616 -76.351610 3.099819 1.662157 10.251467 12.865997 -42.801150 2.109047 -6.533677 -11.776120 -3.741976 18.709980 82.794530 39.543148 16.219672 -11.319116 -27.885293 -9.233175 32.042552 -3.901367 -36.964151 14.834874 0.000000 86.184766 0.000000 5.149144 9.066455 -5.786056 0.000000 -10.232980 0.000000 1.200053 -12.931379 11.936703 0.000000 35.900858 0.000000 6.942070 -15.165413 0.690510 0.000000 -6.126780 0.000000
-115.552893 88.502344 -12.739867 1.215481 -3.347483 -11.293390 -1.115590 4.866326 2.009071 -0.120337 3.804563 0.921665 0.219752 3.112646 0.031668 0.276760 2.513807 0.039142 0.550774 -8.537330 12.163236 2.843268 -7.916428 -9.309495 20.906621 11.561760 16.527716 -60.084236 -7.127919 -30.097573 -79.042389 2.893405 3.157317 10.372277 10.582999 -41.424515 2.068926 -6.359041 -12.006411 -3.892176 18.952713 82.674738 40.908404 17.004932 -10.243707 -27.699132 -7.896701 31.455617 -3.952236 -37.381141 14.510144 0.000000 86.122211 0.000000 5.711251 9.078011 -6.761261 0.000000 -9.977601 0.000000 2.113323 -12.904257 10.858275 0.000000 35.571328 0.000000 6.605911 -15.133346 0.850407 0.000000 -5.824304 0.000000
-115.101282 88.733716 -12.712343 0.847493 -3.243552 -10.584462 -1.243225 4.857404 1.747219 -0.213821 3.868272 0.813630 0.317393 3.107595 0.016182 0.356219 2.395216 0.165332 0.849114 -8.767085 11.689576 2.975358 -8.096668 -9.235029 20.618993 11.315400 16.360113 -58.515701 -7.561024 -29.299914 -81.794382 3.647199 5.018260 10.476827 8.107651 -42.547577 1.983355 -6.298583 -12.191811 -3.758756 19.242138 82.788132 42.039085 18.366698 -9.446152 -27.371254 -7.237440 31.247227 -4.199662 -37.792932 14.394836 0.000000 85.889801 0.000000 6.021479 9.314825 -7.479769 0.000000 -9.879244 0.000000 2.810076 -12.836774 9.837639 0.000000 35.123602 0.000000 6.446263 -14.979634 1.029906 0.000000 -5.611513 0.000000
